<svg xmlns="http://www.w3.org/2000/svg" viewBox="0 0 1200 630" role="img" aria-label="Quadcopter Attitude Controller">
<defs>
<linearGradient id="bg01" x1="0" y1="0" x2="1" y2="1">
<stop offset="0" stop-color="#0c2236"/><stop offset="1" stop-color="#081320"/></linearGradient>
<radialGradient id="gl01" cx="0.82" cy="0.22" r="0.6">
<stop offset="0" stop-color="#2f7fd1" stop-opacity="0.28"/><stop offset="1" stop-color="#2f7fd1" stop-opacity="0"/></radialGradient>
</defs>
<rect width="1200" height="630" fill="url(#bg01)"/>
<rect width="1200" height="630" fill="url(#gl01)"/>
<rect x="0" y="0" width="12" height="630" fill="#2f7fd1"/>
<g fill="none" stroke="#2f7fd1" stroke-width="2" opacity="0.5"><ellipse cx="980" cy="180" rx="240" ry="86" transform="rotate(-20 980 180)"/><ellipse cx="980" cy="180" rx="160" ry="56" transform="rotate(-20 980 180)"/><ellipse cx="980" cy="180" rx="86" ry="30" transform="rotate(-20 980 180)"/></g><circle cx="980" cy="180" r="8" fill="#eaf2fb"/><circle cx="1120" cy="120" r="5" fill="#2f7fd1"/>
<text x="1150" y="150" text-anchor="end" font-family="system-ui,Segoe UI,Arial" font-weight="800" font-size="150" fill="#ffffff" opacity="0.05">01</text>
<text x="70" y="120" font-family="system-ui,Segoe UI,Arial" font-weight="700" font-size="22" letter-spacing="3" fill="#2f7fd1">FLIGHT CONTROL</text>
<text x="70" y="290" font-family="system-ui,Segoe UI,Arial" font-weight="800" font-size="56" fill="#ffffff"><tspan x="70" dy="0">Quadcopter Attitude</tspan><tspan x="70" dy="66">Controller</tspan></text>
<text x="70" y="408" font-family="system-ui,Segoe UI,Arial" font-size="27" fill="#aac3dc">Cascaded PID attitude stabilisation with disturbance rejection</text>
<g transform="translate(70,520)"><rect width="142" height="34" rx="17" fill="#ffffff" opacity="0.08"/><text x="71" y="22" text-anchor="middle" fill="#cfe0f1" font-size="15" font-family="system-ui,Segoe UI,Arial">MATLAB R2026a</text></g><g transform="translate(223.6,520)"><rect width="132" height="34" rx="17" fill="#ffffff" opacity="0.08"/><text x="66" y="22" text-anchor="middle" fill="#cfe0f1" font-size="15" font-family="system-ui,Segoe UI,Arial">Cascaded PID</text></g><g transform="translate(368.0,520)"><rect width="160" height="34" rx="17" fill="#ffffff" opacity="0.08"/><text x="80" y="22" text-anchor="middle" fill="#cfe0f1" font-size="15" font-family="system-ui,Segoe UI,Arial">RK4 integration</text></g>
<text x="1150" y="545" text-anchor="end" font-family="system-ui,Segoe UI,Arial" font-size="20" fill="#7f9cb6">Apr-May 2026</text>
</svg>