<svg xmlns="http://www.w3.org/2000/svg" viewBox="0 0 1100 124" role="img" aria-label="Pipeline: Attitude error (quaternion) to PID + anti-windup to Wheel torque (limited) to Rigid-body dynamics to Momentum tracking">
<defs><marker id="ah04" markerWidth="10" markerHeight="10" refX="7" refY="3" orient="auto"><path d="M0 0 L8 3 L0 6 Z" fill="#e0a82e"/></marker></defs>
<g><rect x="0" y="20" width="199" height="84" rx="12" fill="#f4f8fc" stroke="#e0a82e" stroke-width="2"/><text x="100" y="51" text-anchor="middle" font-family="system-ui,Segoe UI,Arial" font-weight="600" font-size="16" fill="#15324a"><tspan x="100" dy="0">Attitude error</tspan><tspan x="100" dy="18">(quaternion)</tspan></text></g><path d="M203 62 L221 62" stroke="#e0a82e" stroke-width="3" marker-end="url(#ah04)"/><g><rect x="225" y="20" width="199" height="84" rx="12" fill="#f4f8fc" stroke="#e0a82e" stroke-width="2"/><text x="325" y="51" text-anchor="middle" font-family="system-ui,Segoe UI,Arial" font-weight="600" font-size="16" fill="#15324a"><tspan x="325" dy="0">PID +</tspan><tspan x="325" dy="18">anti-windup</tspan></text></g><path d="M428 62 L446 62" stroke="#e0a82e" stroke-width="3" marker-end="url(#ah04)"/><g><rect x="450" y="20" width="199" height="84" rx="12" fill="#f4f8fc" stroke="#e0a82e" stroke-width="2"/><text x="550" y="51" text-anchor="middle" font-family="system-ui,Segoe UI,Arial" font-weight="600" font-size="16" fill="#15324a"><tspan x="550" dy="0">Wheel torque</tspan><tspan x="550" dy="18">(limited)</tspan></text></g><path d="M654 62 L672 62" stroke="#e0a82e" stroke-width="3" marker-end="url(#ah04)"/><g><rect x="676" y="20" width="199" height="84" rx="12" fill="#f4f8fc" stroke="#e0a82e" stroke-width="2"/><text x="775" y="51" text-anchor="middle" font-family="system-ui,Segoe UI,Arial" font-weight="600" font-size="16" fill="#15324a"><tspan x="775" dy="0">Rigid-body</tspan><tspan x="775" dy="18">dynamics</tspan></text></g><path d="M879 62 L897 62" stroke="#e0a82e" stroke-width="3" marker-end="url(#ah04)"/><g><rect x="901" y="20" width="199" height="84" rx="12" fill="#f4f8fc" stroke="#e0a82e" stroke-width="2"/><text x="1000" y="51" text-anchor="middle" font-family="system-ui,Segoe UI,Arial" font-weight="600" font-size="16" fill="#15324a"><tspan x="1000" dy="0">Momentum</tspan><tspan x="1000" dy="18">tracking</tspan></text></g></svg>