<svg xmlns="http://www.w3.org/2000/svg" viewBox="0 0 1100 124" role="img" aria-label="Pipeline: Stability derivatives to State matrices to Eigenanalysis to Mode classification to s-plane + time response">
<defs><marker id="ah03" markerWidth="10" markerHeight="10" refX="7" refY="3" orient="auto"><path d="M0 0 L8 3 L0 6 Z" fill="#7b61ff"/></marker></defs>
<g><rect x="0" y="20" width="199" height="84" rx="12" fill="#f4f8fc" stroke="#7b61ff" stroke-width="2"/><text x="100" y="51" text-anchor="middle" font-family="system-ui,Segoe UI,Arial" font-weight="600" font-size="16" fill="#15324a"><tspan x="100" dy="0">Stability</tspan><tspan x="100" dy="18">derivatives</tspan></text></g><path d="M203 62 L221 62" stroke="#7b61ff" stroke-width="3" marker-end="url(#ah03)"/><g><rect x="225" y="20" width="199" height="84" rx="12" fill="#f4f8fc" stroke="#7b61ff" stroke-width="2"/><text x="325" y="60" text-anchor="middle" font-family="system-ui,Segoe UI,Arial" font-weight="600" font-size="16" fill="#15324a"><tspan x="325" dy="0">State matrices</tspan></text></g><path d="M428 62 L446 62" stroke="#7b61ff" stroke-width="3" marker-end="url(#ah03)"/><g><rect x="450" y="20" width="199" height="84" rx="12" fill="#f4f8fc" stroke="#7b61ff" stroke-width="2"/><text x="550" y="60" text-anchor="middle" font-family="system-ui,Segoe UI,Arial" font-weight="600" font-size="16" fill="#15324a"><tspan x="550" dy="0">Eigenanalysis</tspan></text></g><path d="M654 62 L672 62" stroke="#7b61ff" stroke-width="3" marker-end="url(#ah03)"/><g><rect x="676" y="20" width="199" height="84" rx="12" fill="#f4f8fc" stroke="#7b61ff" stroke-width="2"/><text x="775" y="51" text-anchor="middle" font-family="system-ui,Segoe UI,Arial" font-weight="600" font-size="16" fill="#15324a"><tspan x="775" dy="0">Mode</tspan><tspan x="775" dy="18">classification</tspan></text></g><path d="M879 62 L897 62" stroke="#7b61ff" stroke-width="3" marker-end="url(#ah03)"/><g><rect x="901" y="20" width="199" height="84" rx="12" fill="#f4f8fc" stroke="#7b61ff" stroke-width="2"/><text x="1000" y="51" text-anchor="middle" font-family="system-ui,Segoe UI,Arial" font-weight="600" font-size="16" fill="#15324a"><tspan x="1000" dy="0">s-plane + time</tspan><tspan x="1000" dy="18">response</tspan></text></g></svg>