<svg xmlns="http://www.w3.org/2000/svg" viewBox="0 0 1100 124" role="img" aria-label="Pipeline: Reference dimensions to Fuselage solid to Wings + empennage to Engineering drawing to Renders">
<defs><marker id="ah08" markerWidth="10" markerHeight="10" refX="7" refY="3" orient="auto"><path d="M0 0 L8 3 L0 6 Z" fill="#2bb3c0"/></marker></defs>
<g><rect x="0" y="20" width="199" height="84" rx="12" fill="#f4f8fc" stroke="#2bb3c0" stroke-width="2"/><text x="100" y="51" text-anchor="middle" font-family="system-ui,Segoe UI,Arial" font-weight="600" font-size="16" fill="#15324a"><tspan x="100" dy="0">Reference</tspan><tspan x="100" dy="18">dimensions</tspan></text></g><path d="M203 62 L221 62" stroke="#2bb3c0" stroke-width="3" marker-end="url(#ah08)"/><g><rect x="225" y="20" width="199" height="84" rx="12" fill="#f4f8fc" stroke="#2bb3c0" stroke-width="2"/><text x="325" y="60" text-anchor="middle" font-family="system-ui,Segoe UI,Arial" font-weight="600" font-size="16" fill="#15324a"><tspan x="325" dy="0">Fuselage solid</tspan></text></g><path d="M428 62 L446 62" stroke="#2bb3c0" stroke-width="3" marker-end="url(#ah08)"/><g><rect x="450" y="20" width="199" height="84" rx="12" fill="#f4f8fc" stroke="#2bb3c0" stroke-width="2"/><text x="550" y="51" text-anchor="middle" font-family="system-ui,Segoe UI,Arial" font-weight="600" font-size="16" fill="#15324a"><tspan x="550" dy="0">Wings +</tspan><tspan x="550" dy="18">empennage</tspan></text></g><path d="M654 62 L672 62" stroke="#2bb3c0" stroke-width="3" marker-end="url(#ah08)"/><g><rect x="676" y="20" width="199" height="84" rx="12" fill="#f4f8fc" stroke="#2bb3c0" stroke-width="2"/><text x="775" y="51" text-anchor="middle" font-family="system-ui,Segoe UI,Arial" font-weight="600" font-size="16" fill="#15324a"><tspan x="775" dy="0">Engineering</tspan><tspan x="775" dy="18">drawing</tspan></text></g><path d="M879 62 L897 62" stroke="#2bb3c0" stroke-width="3" marker-end="url(#ah08)"/><g><rect x="901" y="20" width="199" height="84" rx="12" fill="#f4f8fc" stroke="#2bb3c0" stroke-width="2"/><text x="1000" y="60" text-anchor="middle" font-family="system-ui,Segoe UI,Arial" font-weight="600" font-size="16" fill="#15324a"><tspan x="1000" dy="0">Renders</tspan></text></g></svg>