<svg xmlns="http://www.w3.org/2000/svg" viewBox="0 0 1200 630" role="img" aria-label="GPS Single-Point Positioning + EKF">
<defs>
<linearGradient id="bg05" x1="0" y1="0" x2="1" y2="1">
<stop offset="0" stop-color="#0c2236"/><stop offset="1" stop-color="#081320"/></linearGradient>
<radialGradient id="gl05" cx="0.82" cy="0.22" r="0.6">
<stop offset="0" stop-color="#16967f" stop-opacity="0.28"/><stop offset="1" stop-color="#16967f" stop-opacity="0"/></radialGradient>
</defs>
<rect width="1200" height="630" fill="url(#bg05)"/>
<rect width="1200" height="630" fill="url(#gl05)"/>
<rect x="0" y="0" width="12" height="630" fill="#16967f"/>
<path d="M760 470 C 880 360, 980 420, 1140 200" fill="none" stroke="#16967f" stroke-width="2.5" opacity="0.8" stroke-dasharray="2 10" stroke-linecap="round"/><g fill="#16967f" opacity="0.85"><circle cx="820" cy="426" r="5"/><circle cx="940" cy="392" r="5"/><circle cx="1060" cy="300" r="5"/></g><circle cx="1140" cy="200" r="9" fill="#eaf2fb"/>
<text x="1150" y="150" text-anchor="end" font-family="system-ui,Segoe UI,Arial" font-weight="800" font-size="150" fill="#ffffff" opacity="0.05">05</text>
<text x="70" y="120" font-family="system-ui,Segoe UI,Arial" font-weight="700" font-size="22" letter-spacing="3" fill="#16967f">ESTIMATION &amp; NAVIGATION</text>
<text x="70" y="290" font-family="system-ui,Segoe UI,Arial" font-weight="800" font-size="56" fill="#ffffff"><tspan x="70" dy="0">GPS Single-Point Positioning</tspan><tspan x="70" dy="66">+ EKF</tspan></text>
<text x="70" y="408" font-family="system-ui,Segoe UI,Arial" font-size="27" fill="#aac3dc">A from-scratch GNSS pipeline in C++17</text>
<g transform="translate(70,520)"><rect width="68" height="34" rx="17" fill="#ffffff" opacity="0.08"/><text x="34" y="22" text-anchor="middle" fill="#cfe0f1" font-size="15" font-family="system-ui,Segoe UI,Arial">C++17</text></g><g transform="translate(150.0,520)"><rect width="142" height="34" rx="17" fill="#ffffff" opacity="0.08"/><text x="71" y="22" text-anchor="middle" fill="#cfe0f1" font-size="15" font-family="system-ui,Segoe UI,Arial">CMake / Ninja</text></g><g transform="translate(303.6,520)"><rect width="114" height="34" rx="17" fill="#ffffff" opacity="0.08"/><text x="57" y="22" text-anchor="middle" fill="#cfe0f1" font-size="15" font-family="system-ui,Segoe UI,Arial">RINEX, SP3</text></g>
<text x="1150" y="545" text-anchor="end" font-family="system-ui,Segoe UI,Arial" font-size="20" fill="#7f9cb6">Jan-Feb 2026</text>
</svg>